<svg width="28" height="28" viewBox="0 0 28 28" fill="none" xmlns="http://www.w3.org/2000/svg">
<path d="M11.7645 16.155H16.339V13.8678H11.7645V16.155ZM11.7645 12.7242H20.9135V10.4369H11.7645V12.7242ZM11.7645 9.29331H20.9135V7.00608H11.7645V9.29331ZM9.4773 20.7295C8.84831 20.7295 8.31005 20.5057 7.86252 20.0582C7.41498 19.6106 7.19083 19.072 7.19007 18.4422V4.71884C7.19007 4.08985 7.41422 3.55159 7.86252 3.10406C8.31081 2.65652 8.84908 2.43237 9.4773 2.43161H23.2007C23.8297 2.43161 24.3683 2.65576 24.8166 3.10406C25.2649 3.55235 25.4887 4.09062 25.4879 4.71884V18.4422C25.4879 19.0712 25.2642 19.6099 24.8166 20.0582C24.3691 20.5065 23.8305 20.7302 23.2007 20.7295H9.4773ZM4.90283 25.304C4.27385 25.304 3.73558 25.0802 3.28805 24.6326C2.84051 24.1851 2.61636 23.6465 2.6156 23.0167V7.00608H4.90283V23.0167H20.9135V25.304H4.90283Z" fill="#5B93FF"/>
</svg>
