<svg width="57" height="15" viewBox="0 0 57 15" fill="none" xmlns="http://www.w3.org/2000/svg">
<path d="M56.3103 6.54268C53.9663 11.2349 49.0993 14.4601 43.4742 14.4601C35.6293 14.4601 29.2566 8.18359 29.1492 0.402344H34.7869C34.8143 1.67232 35.1197 3.00308 35.7536 4.33802C36.4928 5.89092 37.7501 7.15252 39.3106 7.886C43.1435 9.68829 46.9259 8.81648 49.3857 6.54268H56.3103Z" fill="#0073FF"/>
<path d="M23.0308 0.398438C22.9276 5.08437 19.0779 8.8503 14.3436 8.8503C9.60928 8.8503 5.75951 5.08437 5.65632 0.398438H0.0185547C0.123855 8.18178 6.49661 14.4583 14.3415 14.4583C22.1863 14.4583 28.5612 8.18178 28.6665 0.398438H23.0287H23.0308Z" fill="#0073FF"/>
</svg>
