<svg width="835" height="739" viewBox="0 0 835 739" fill="none" xmlns="http://www.w3.org/2000/svg">
<path d="M499.562 688.88L412.576 657.875L226.224 592.119L90.0405 545.052L-47.7585 497.253L-223.022 436.105C-313.121 704.63 -190.131 986.789 57.9445 1073.48C306.02 1160.17 584.095 1017.09 680.854 750.889L513.773 693.617L499.562 688.88Z" fill="#001733"/>
<path d="M682.349 752.5L-221.91 436.508C-157.82 288.819 8.40958 28.2598 382.554 159.004L382.321 159.67L657.287 590.695C687.767 638.412 697.12 696.757 682.608 751.544L682.282 752.477L682.349 752.5Z" fill="#0A79FF"/>
<path d="M682.35 752.5L-221.909 436.508C-157.819 288.819 8.41055 28.2598 382.555 159.004L382.322 159.67L657.288 590.695C687.768 638.412 697.121 696.757 682.609 751.544L682.283 752.477L682.35 752.5Z" fill="#0A79FF"/>
<path d="M382.478 159.399L333.774 375.76C329.671 394.13 332.527 412.69 340.891 428.316C351.275 447.788 370.425 461.205 392.021 465.912C420.489 472.124 496.319 489.506 553.793 509.59C625.918 534.794 639.848 563.575 639.848 563.575C639.982 563.622 640.095 563.512 640.052 563.422C631.742 550.206 390.208 171.067 382.768 159.425C382.725 159.335 382.568 159.355 382.522 159.489L382.478 159.399Z" fill="#82BBFF"/>
<path d="M682.199 752.45L-222.061 436.458C-157.971 288.769 8.25894 28.2095 382.403 158.954L382.17 159.619L657.136 590.645C687.616 638.362 696.97 696.707 682.458 751.494L682.132 752.427L682.199 752.45Z" fill="#0A79FF"/>
<path d="M681.717 752.329L-222.542 436.337C-158.453 288.648 7.77725 28.0884 381.921 158.832L381.689 159.498L656.654 590.524C687.134 638.241 696.488 696.586 681.976 751.373L681.65 752.305L681.717 752.329Z" fill="#001733"/>
<path d="M382.327 159.348L333.623 375.71C329.52 394.08 332.376 412.639 340.74 428.266C351.124 447.737 370.274 461.155 391.87 465.862C420.338 472.074 496.168 489.455 553.642 509.539C625.767 534.743 639.697 563.525 639.697 563.525C639.83 563.571 639.944 563.461 639.9 563.372C631.591 550.155 390.057 171.017 382.617 159.375C382.573 159.285 382.417 159.305 382.371 159.438L382.327 159.348Z" fill="#002E66"/>
</svg>
