<svg width="68" height="30" viewBox="0 0 68 30" fill="none" xmlns="http://www.w3.org/2000/svg">
<g id="logo" clip-path="url(#clip0_3367_1424)">
<g id="Group">
<g id="Group_2">
<path id="Vector" d="M64.31 8.38062H57.3855C55.8333 6.94718 53.7568 6.07119 51.4739 6.07119C46.8597 6.07119 43.0857 9.65061 42.8014 14.171H37.1594C37.2226 12.484 37.5806 10.7341 38.2819 8.96951C39.615 5.61014 42.2917 2.93815 45.6635 1.6053C53.5736 -1.52354 61.1847 2.12713 64.31 8.38272V8.38062Z" fill="#0073FF"/>
</g>
<g id="Group_3">
<path id="Vector_2" d="M36.6246 14.1667H8.0293C8.381 9.3969 10.4996 0.460938 22.3311 0.460938V0.481894L34.3248 9.87472C35.6537 10.9142 36.4919 12.4587 36.6224 14.1373V14.1667H36.6246Z" fill="#0073FF"/>
<path id="Vector_3" d="M22.3328 0.471668L23.0909 7.01647C23.1562 7.57182 23.4195 8.0643 23.8091 8.42057C24.2935 8.86485 24.9653 9.05346 25.6202 8.97383C26.4837 8.86904 28.7919 8.61337 30.6093 8.61337C32.8901 8.61337 33.5662 9.28399 33.5662 9.28399C33.5704 9.28399 33.5725 9.2798 33.5704 9.2777C33.206 8.9885 22.6655 0.723149 22.3412 0.469572C22.3391 0.467476 22.3349 0.469572 22.3349 0.473763L22.3328 0.471668Z" fill="white"/>
</g>
</g>
</g>
<defs>
<clipPath id="clip0_3367_1424">
<rect width="68" height="30" fill="white"/>
</clipPath>
</defs>
</svg>
