<svg width="816" height="748" viewBox="0 0 816 748" fill="none" xmlns="http://www.w3.org/2000/svg">
<path d="M335.154 688.689L422.094 657.7L608.35 591.979L744.462 544.936L882.19 497.162L1057.36 436.045C1147.4 704.402 1024.47 986.393 776.524 1073.04C528.578 1159.68 250.655 1016.7 153.957 750.666L320.951 693.423L335.154 688.689Z" fill="#001733"/>
<path d="M152.462 752.276L1056.25 436.449C992.2 288.852 826.067 28.458 452.117 159.134L452.35 159.799L177.517 590.569C147.051 638.258 137.701 696.567 152.203 751.321L152.529 752.253L152.462 752.276Z" fill="#0A79FF"/>
<path d="M152.461 752.276L1056.25 436.449C992.199 288.852 826.066 28.458 452.116 159.134L452.349 159.799L177.516 590.569C147.05 638.258 137.7 696.567 152.202 751.321L152.528 752.253L152.461 752.276Z" fill="#0A79FF"/>
<path d="M452.193 159.528L500.864 375.756C504.964 394.114 502.109 412.662 493.749 428.28C483.37 447.74 464.23 461.15 442.645 465.854C414.192 472.063 338.401 489.437 280.958 509.51C208.87 534.701 194.946 563.465 194.946 563.465C194.813 563.512 194.7 563.402 194.743 563.312C203.049 550.104 444.467 171.19 451.903 159.555C451.947 159.465 452.103 159.485 452.149 159.618L452.193 159.528Z" fill="#82BBFF"/>
<path d="M152.613 752.225L1056.4 436.398C992.35 288.802 826.217 28.4077 452.268 159.084L452.501 159.749L177.667 590.519C147.202 638.208 137.851 696.517 152.354 751.27L152.68 752.202L152.613 752.225Z" fill="#0A79FF"/>
<path d="M153.094 752.104L1056.88 436.277C992.832 288.681 826.699 28.2866 452.749 158.963L452.982 159.628L178.149 590.398C147.684 638.087 138.333 696.396 152.835 751.149L153.161 752.081L153.094 752.104Z" fill="#001733"/>
<path d="M452.344 159.478L501.015 375.706C505.115 394.064 502.26 412.612 493.9 428.23C483.521 447.689 464.381 461.099 442.796 465.804C414.343 472.013 338.553 489.386 281.109 509.46C209.022 534.651 195.098 563.415 195.098 563.415C194.964 563.462 194.851 563.352 194.895 563.262C203.2 550.053 444.618 171.14 452.054 159.505C452.098 159.415 452.254 159.435 452.3 159.568L452.344 159.478Z" fill="#002E66"/>
</svg>
